<?xml version="1.0" standalone="no"?>
<!DOCTYPE svg PUBLIC "-//W3C//DTD SVG 20010904//EN"
 "http://www.w3.org/TR/2001/REC-SVG-20010904/DTD/svg10.dtd">
<svg version="1.0" xmlns="http://www.w3.org/2000/svg"
 width="1080.000000pt" height="1080.000000pt" viewBox="0 0 1080.000000 1080.000000"
 preserveAspectRatio="xMidYMid meet">

<g transform="translate(0.000000,1080.000000) scale(0.100000,-0.100000)"
fill="#000000" stroke="none">
<path d="M0 10244 c0 -367 3 -553 10 -549 5 3 10 12 10 18 0 27 75 98 115 108
107 28 180 36 210 23 17 -7 38 -13 48 -14 10 0 51 -21 90 -46 43 -28 73 -42
75 -35 3 9 7 9 18 1 14 -12 38 -4 29 10 -2 4 4 19 15 33 11 14 20 30 20 36 0
6 4 11 8 11 4 0 14 16 21 36 7 19 20 38 29 42 25 9 82 63 82 78 0 7 14 24 31
37 22 17 32 34 33 53 1 21 6 29 19 28 15 -2 23 24 18 58 -2 19 33 80 68 118
21 23 42 55 45 71 3 16 15 39 26 51 11 12 20 32 20 45 0 16 6 23 20 23 11 0
20 6 20 13 0 8 9 22 19 31 17 16 29 50 34 99 1 9 5 17 9 17 4 0 10 16 14 35 6
33 24 59 24 36 0 -6 5 -11 10 -11 6 0 10 11 10 24 0 16 7 27 20 31 11 3 20 15
20 26 0 19 -14 19 -620 19 l-620 0 0 -556z"/>
<path d="M1787 8703 c-4 -3 -7 -15 -7 -25 0 -21 36 -25 43 -5 9 27 -17 50 -36
30z"/>
<path d="M1884 8695 c-7 -18 3 -35 21 -35 15 0 24 19 18 38 -6 17 -32 15 -39
-3z"/>
<path d="M1984 8695 c-7 -18 3 -35 21 -35 18 0 26 15 19 34 -8 20 -33 21 -40
1z"/>
<path d="M2084 8695 c-4 -9 -2 -21 4 -27 15 -15 44 -1 40 19 -4 23 -36 29 -44
8z"/>
<path d="M2184 8695 c-4 -9 -2 -21 4 -27 15 -15 44 -1 40 19 -4 23 -36 29 -44
8z"/>
<path d="M2284 8695 c-4 -9 -2 -21 4 -27 15 -15 44 -1 40 19 -4 23 -36 29 -44
8z"/>
<path d="M2387 8697 c-3 -8 -2 -20 3 -27 11 -18 42 -4 38 17 -4 22 -34 29 -41
10z"/>
<path d="M2491 8696 c-9 -10 -8 -16 4 -26 19 -16 41 1 32 24 -8 20 -21 20 -36
2z"/>
<path d="M2593 8694 c-8 -21 13 -42 28 -27 13 13 5 43 -11 43 -6 0 -13 -7 -17
-16z"/>
<path d="M2693 8694 c-9 -23 13 -40 32 -24 12 10 13 16 4 26 -15 18 -28 18
-36 -2z"/>
<path d="M2794 8695 c-7 -18 3 -35 21 -35 15 0 24 19 18 38 -6 17 -32 15 -39
-3z"/>
<path d="M2894 8695 c-4 -9 -2 -21 4 -27 15 -15 44 -1 40 19 -4 23 -36 29 -44
8z"/>
<path d="M2994 8695 c-4 -9 -2 -21 4 -27 15 -15 44 -1 40 19 -4 23 -36 29 -44
8z"/>
<path d="M3094 8695 c-4 -9 -2 -21 4 -27 15 -15 44 -1 40 19 -4 23 -36 29 -44
8z"/>
<path d="M3194 8695 c-4 -9 -2 -21 4 -27 15 -15 44 -1 40 19 -4 23 -36 29 -44
8z"/>
<path d="M3294 8695 c-4 -9 -2 -21 4 -27 15 -15 44 -1 40 19 -4 23 -36 29 -44
8z"/>
<path d="M3400 8695 c-12 -14 -11 -18 1 -26 20 -12 34 -6 34 16 0 24 -19 30
-35 10z"/>
<path d="M3503 8694 c-8 -21 13 -42 28 -27 13 13 5 43 -11 43 -6 0 -13 -7 -17
-16z"/>
<path d="M3603 8694 c-8 -21 13 -42 28 -27 13 13 5 43 -11 43 -6 0 -13 -7 -17
-16z"/>
<path d="M3703 8694 c-9 -23 13 -40 32 -24 12 10 13 16 4 26 -15 18 -28 18
-36 -2z"/>
<path d="M3804 8695 c-7 -18 3 -35 21 -35 15 0 24 19 18 38 -6 17 -32 15 -39
-3z"/>
<path d="M3904 8695 c-4 -9 -2 -21 4 -27 15 -15 44 -1 40 19 -4 23 -36 29 -44
8z"/>
<path d="M4004 8695 c-4 -9 -2 -21 4 -27 15 -15 44 -1 40 19 -4 23 -36 29 -44
8z"/>
<path d="M4104 8695 c-4 -9 -2 -21 4 -27 15 -15 44 -1 40 19 -4 23 -36 29 -44
8z"/>
<path d="M4207 8697 c-3 -8 -2 -20 3 -27 11 -18 42 -4 38 17 -4 22 -34 29 -41
10z"/>
<path d="M4307 8696 c-8 -20 20 -43 35 -28 14 14 3 42 -16 42 -7 0 -16 -6 -19
-14z"/>
<path d="M4413 8694 c-8 -21 13 -42 28 -27 13 13 5 43 -11 43 -6 0 -13 -7 -17
-16z"/>
<path d="M4513 8694 c-8 -21 13 -42 28 -27 13 13 5 43 -11 43 -6 0 -13 -7 -17
-16z"/>
<path d="M4613 8694 c-3 -8 -1 -20 5 -26 15 -15 43 8 35 28 -7 19 -32 18 -40
-2z"/>
<path d="M4714 8695 c-7 -18 3 -35 21 -35 15 0 24 19 18 38 -6 17 -32 15 -39
-3z"/>
<path d="M4814 8695 c-4 -9 -2 -21 4 -27 15 -15 44 -1 40 19 -4 23 -36 29 -44
8z"/>
<path d="M4914 8695 c-4 -9 -2 -21 4 -27 15 -15 44 -1 40 19 -4 23 -36 29 -44
8z"/>
<path d="M5014 8695 c-4 -9 -2 -21 4 -27 15 -15 44 -1 40 19 -4 23 -36 29 -44
8z"/>
<path d="M5116 8694 c-4 -10 -2 -22 3 -27 14 -14 43 0 39 20 -4 24 -34 28 -42
7z"/>
<path d="M5222 8697 c-15 -17 1 -42 23 -33 18 6 17 37 -1 43 -6 2 -16 -2 -22
-10z"/>
<path d="M5323 8694 c-8 -21 13 -42 28 -27 13 13 5 43 -11 43 -6 0 -13 -7 -17
-16z"/>
<path d="M5423 8694 c-8 -21 13 -42 28 -27 13 13 5 43 -11 43 -6 0 -13 -7 -17
-16z"/>
<path d="M5523 8694 c-8 -21 13 -42 28 -27 13 13 5 43 -11 43 -6 0 -13 -7 -17
-16z"/>
<path d="M5624 8695 c-7 -18 3 -35 21 -35 18 0 26 25 12 39 -15 15 -27 14 -33
-4z"/>
<path d="M5724 8695 c-7 -18 3 -35 21 -35 18 0 26 15 19 34 -8 20 -33 21 -40
1z"/>
<path d="M5824 8695 c-4 -9 -2 -21 4 -27 15 -15 44 -1 40 19 -4 23 -36 29 -44
8z"/>
<path d="M5924 8695 c-4 -9 -2 -21 4 -27 15 -15 44 -1 40 19 -4 23 -36 29 -44
8z"/>
<path d="M6024 8695 c-4 -9 -2 -21 4 -27 15 -15 44 -1 40 19 -4 23 -36 29 -44
8z"/>
<path d="M6127 8697 c-3 -8 -2 -20 3 -27 11 -18 42 -4 38 17 -4 22 -34 29 -41
10z"/>
<path d="M6232 8688 c2 -12 10 -23 18 -23 22 0 19 39 -3 43 -15 3 -18 -1 -15
-20z"/>
<path d="M6333 8694 c-8 -21 13 -42 28 -27 13 13 5 43 -11 43 -6 0 -13 -7 -17
-16z"/>
<path d="M6433 8694 c-9 -23 13 -40 32 -24 12 10 13 16 4 26 -15 18 -28 18
-36 -2z"/>
<path d="M6533 8694 c-3 -8 -1 -20 5 -26 15 -15 43 8 35 28 -7 19 -32 18 -40
-2z"/>
<path d="M6634 8695 c-7 -18 3 -35 21 -35 18 0 26 15 19 34 -8 20 -33 21 -40
1z"/>
<path d="M6734 8695 c-4 -9 -2 -21 4 -27 15 -15 44 -1 40 19 -4 23 -36 29 -44
8z"/>
<path d="M6834 8695 c-4 -9 -2 -21 4 -27 15 -15 44 -1 40 19 -4 23 -36 29 -44
8z"/>
<path d="M6934 8695 c-4 -9 -2 -21 4 -27 15 -15 44 -1 40 19 -4 23 -36 29 -44
8z"/>
<path d="M7037 8697 c-3 -8 -2 -20 3 -27 11 -18 42 -4 38 17 -4 22 -34 29 -41
10z"/>
<path d="M7141 8696 c-9 -10 -8 -16 4 -26 19 -16 41 1 32 24 -8 20 -21 20 -36
2z"/>
<path d="M7243 8694 c-8 -21 13 -42 28 -27 13 13 5 43 -11 43 -6 0 -13 -7 -17
-16z"/>
<path d="M7343 8694 c-9 -23 13 -40 32 -24 12 10 13 16 4 26 -15 18 -28 18
-36 -2z"/>
<path d="M7444 8695 c-7 -18 3 -35 21 -35 18 0 26 15 19 34 -8 20 -33 21 -40
1z"/>
<path d="M7544 8695 c-4 -9 -2 -21 4 -27 15 -15 44 -1 40 19 -4 23 -36 29 -44
8z"/>
<path d="M7644 8695 c-4 -9 -2 -21 4 -27 15 -15 44 -1 40 19 -4 23 -36 29 -44
8z"/>
<path d="M7744 8695 c-4 -9 -2 -21 4 -27 15 -15 44 -1 40 19 -4 23 -36 29 -44
8z"/>
<path d="M7844 8695 c-4 -9 -2 -21 4 -27 15 -15 44 -1 40 19 -4 23 -36 29 -44
8z"/>
<path d="M7944 8695 c-4 -9 -2 -21 4 -27 15 -15 44 -1 40 19 -4 23 -36 29 -44
8z"/>
<path d="M8052 8697 c-15 -17 1 -42 23 -33 18 6 17 37 -1 43 -6 2 -16 -2 -22
-10z"/>
<path d="M8152 8688 c2 -12 10 -23 18 -23 22 0 19 39 -3 43 -15 3 -18 -1 -15
-20z"/>
<path d="M8253 8694 c-8 -21 13 -42 28 -27 13 13 5 43 -11 43 -6 0 -13 -7 -17
-16z"/>
<path d="M8353 8694 c-9 -23 13 -40 32 -24 12 10 13 16 4 26 -15 18 -28 18
-36 -2z"/>
<path d="M8454 8695 c-7 -18 3 -35 21 -35 15 0 24 19 18 38 -6 17 -32 15 -39
-3z"/>
<path d="M8554 8695 c-4 -9 -2 -21 4 -27 15 -15 44 -1 40 19 -4 23 -36 29 -44
8z"/>
<path d="M8654 8695 c-4 -9 -2 -21 4 -27 15 -15 44 -1 40 19 -4 23 -36 29 -44
8z"/>
<path d="M8754 8695 c-4 -9 -2 -21 4 -27 15 -15 44 -1 40 19 -4 23 -36 29 -44
8z"/>
<path d="M8856 8694 c-4 -10 -2 -22 3 -27 14 -14 43 0 39 20 -4 24 -34 28 -42
7z"/>
<path d="M8957 8697 c-3 -8 -2 -20 3 -27 11 -18 42 -4 38 17 -4 22 -34 29 -41
10z"/>
<path d="M9058 8698 c-8 -21 2 -38 24 -38 14 0 19 6 16 22 -3 25 -33 36 -40
16z"/>
<path d="M1784 8635 c-8 -19 12 -36 33 -28 19 7 12 37 -10 41 -9 2 -20 -4 -23
-13z"/>
<path d="M9054 8635 c-8 -19 12 -36 33 -28 19 7 12 37 -10 41 -9 2 -20 -4 -23
-13z"/>
<path d="M1782 8528 c2 -15 10 -23 23 -23 13 0 21 8 23 23 3 18 -1 22 -23 22
-22 0 -26 -4 -23 -22z"/>
<path d="M9054 8535 c-4 -9 -2 -21 4 -27 15 -15 44 -1 40 19 -4 23 -36 29 -44
8z"/>
<path d="M1782 8428 c4 -30 43 -33 43 -3 0 13 -8 21 -23 23 -20 3 -23 0 -20
-20z"/>
<path d="M9054 8435 c-4 -9 -2 -21 4 -27 15 -15 44 -1 40 19 -4 23 -36 29 -44
8z"/>
<path d="M4640 8350 c-69 -44 -129 -81 -133 -82 -10 -4 2 -38 14 -38 10 0 243
130 274 153 16 13 17 17 6 31 -7 9 -19 16 -25 16 -6 0 -67 -36 -136 -80z"/>
<path d="M1790 8350 c-8 -5 -18 -6 -23 -3 -5 3 -6 -4 -2 -17 5 -15 4 -20 -4
-16 -6 4 -11 3 -11 -2 0 -10 49 -21 68 -14 16 5 15 49 -1 55 -8 3 -20 1 -27
-3z"/>
<path d="M9054 8335 c-4 -9 -2 -21 4 -27 15 -15 44 -1 40 19 -4 23 -36 29 -44
8z"/>
<path d="M1781 8238 c-10 -26 11 -50 35 -41 19 7 18 49 -2 57 -23 9 -24 8 -33
-16z"/>
<path d="M9054 8235 c-4 -9 -2 -21 4 -27 15 -15 44 -1 40 19 -4 23 -36 29 -44
8z"/>
<path d="M3175 8163 c-48 -6 -127 -34 -165 -58 -53 -34 -86 -74 -117 -140
l-28 -60 0 -280 c0 -307 3 -330 58 -412 67 -101 179 -148 347 -147 124 0 199
20 262 67 77 59 151 196 117 218 -28 18 -51 5 -69 -42 -39 -106 -114 -161
-242 -180 -192 -28 -351 51 -393 195 -14 46 -16 99 -13 318 l3 263 28 53 c51
98 150 145 302 146 170 0 267 -54 313 -175 17 -46 24 -54 43 -51 38 4 41 16
19 74 -27 72 -87 140 -153 172 -78 38 -204 53 -312 39z"/>
<path d="M6541 8159 c-107 -18 -202 -83 -246 -169 -36 -71 -45 -146 -45 -375
0 -288 14 -354 95 -444 74 -82 243 -126 396 -103 142 20 224 75 279 184 37 75
38 96 4 104 -30 8 -38 1 -53 -47 -45 -139 -216 -214 -404 -176 -126 26 -201
88 -233 193 -17 57 -20 517 -4 576 19 66 70 130 130 161 155 79 389 47 470
-65 17 -23 35 -59 42 -80 10 -33 15 -38 40 -38 16 0 31 6 34 14 8 20 -38 117
-76 159 -84 96 -247 136 -429 106z"/>
<path d="M7531 8138 c-5 -13 -99 -251 -210 -529 -110 -278 -201 -511 -201
-518 0 -8 12 -11 32 -9 32 3 33 6 101 176 l69 172 251 -2 250 -3 68 -170 c38
-93 69 -171 69 -172 0 -2 16 -3 35 -3 19 0 35 3 35 8 -1 4 -96 246 -213 537
l-212 530 -33 3 c-26 3 -34 -1 -41 -20z m168 -393 l99 -250 -221 -3 c-121 -1
-222 0 -225 3 -3 2 43 125 100 272 58 148 109 282 113 298 7 29 7 29 21 -20 7
-27 58 -162 113 -300z"/>
<path d="M1784 8135 c-10 -25 3 -44 25 -38 29 7 29 53 1 53 -11 0 -23 -7 -26
-15z"/>
<path d="M3847 8144 c-4 -4 -7 -245 -7 -536 l0 -528 315 0 315 0 0 30 0 30
-280 0 -280 0 -2 503 -3 502 -25 3 c-14 2 -29 0 -33 -4z"/>
<path d="M4627 8144 c-4 -4 -7 -245 -7 -536 l0 -529 33 3 32 3 0 530 0 530
-25 3 c-14 2 -29 0 -33 -4z"/>
<path d="M4936 8134 c-8 -20 -8 -1018 0 -1038 4 -10 18 -16 36 -16 l30 0 -3
484 -4 484 29 -46 c61 -98 225 -337 424 -622 193 -274 210 -295 240 -298 l32
-3 -2 533 -3 533 -27 3 c-23 3 -29 -2 -34 -24 -4 -15 -5 -232 -2 -482 3 -249
2 -450 -2 -445 -4 4 -33 49 -65 98 -32 50 -177 262 -324 472 -236 339 -269
383 -292 383 -15 0 -29 -7 -33 -16z"/>
<path d="M5965 8138 c-3 -7 -4 -247 -3 -533 l3 -520 30 0 30 0 0 530 0 530
-28 3 c-16 2 -29 -2 -32 -10z"/>
<path d="M9054 8135 c-4 -9 -2 -21 4 -27 15 -15 44 -1 40 19 -4 23 -36 29 -44
8z"/>
<path d="M1784 8036 c-8 -21 13 -46 32 -39 20 8 13 47 -9 51 -9 2 -20 -4 -23
-12z"/>
<path d="M9054 8035 c-4 -9 -2 -21 4 -27 15 -15 44 -1 40 19 -4 23 -36 29 -44
8z"/>
<path d="M1787 7944 c-13 -13 -7 -42 10 -48 21 -8 36 6 31 30 -3 19 -29 30
-41 18z"/>
<path d="M9057 7944 c-4 -4 -7 -16 -7 -26 0 -14 6 -19 23 -16 14 2 22 10 22
23 0 20 -25 32 -38 19z"/>
<path d="M1784 7836 c-9 -24 4 -48 23 -44 12 2 18 12 18 28 0 29 -32 41 -41
16z"/>
<path d="M9061 7837 c-19 -19 -12 -37 14 -37 18 0 25 5 25 19 0 23 -23 34 -39
18z"/>
<path d="M1784 7736 c-9 -24 4 -48 23 -44 12 2 18 12 18 28 0 29 -32 41 -41
16z"/>
<path d="M9055 7730 c-9 -15 14 -40 31 -33 22 8 18 43 -5 43 -11 0 -23 -5 -26
-10z"/>
<path d="M1784 7636 c-9 -24 4 -48 23 -44 12 2 18 12 18 28 0 29 -32 41 -41
16z"/>
<path d="M9054 7625 c-4 -9 -2 -21 4 -27 15 -15 44 -1 40 19 -4 23 -36 29 -44
8z"/>
<path d="M1787 7543 c-13 -12 -7 -53 7 -53 8 0 16 -6 19 -12 2 -7 8 -1 12 14
4 16 5 35 1 43 -6 15 -28 20 -39 8z"/>
<path d="M9054 7525 c-4 -9 -2 -21 4 -27 15 -15 44 -1 40 19 -4 23 -36 29 -44
8z"/>
<path d="M1837 7453 c3 -21 12 -45 19 -54 8 -8 14 -23 14 -32 0 -23 21 -67 33
-67 5 0 22 -11 39 -25 16 -14 39 -25 50 -25 17 0 19 4 13 27 -3 15 -10 30 -14
33 -7 5 -12 17 -47 113 -19 53 -47 76 -70 56 -11 -9 -17 -9 -29 1 -12 10 -13
6 -8 -27z"/>
<path d="M1793 7443 c-16 -6 -17 -35 -2 -50 20 -20 46 -4 41 26 -4 27 -13 32
-39 24z"/>
<path d="M9054 7425 c-4 -9 -2 -21 4 -27 15 -15 44 -1 40 19 -4 23 -36 29 -44
8z"/>
<path d="M1795 7336 c-23 -16 -13 -46 15 -46 15 0 20 7 20 24 0 31 -12 39 -35
22z"/>
<path d="M9054 7325 c-4 -9 -2 -21 4 -27 15 -15 44 -1 40 19 -4 23 -36 29 -44
8z"/>
<path d="M1784 7225 c-4 -9 -2 -21 4 -27 15 -15 44 -1 40 19 -4 23 -36 29 -44
8z"/>
<path d="M9054 7225 c-4 -9 -2 -21 4 -27 15 -15 44 -1 40 19 -4 23 -36 29 -44
8z"/>
<path d="M1784 7125 c-4 -9 -2 -21 4 -27 15 -15 44 -1 40 19 -4 23 -36 29 -44
8z"/>
<path d="M9054 7125 c-4 -9 -2 -21 4 -27 15 -15 44 -1 40 19 -4 23 -36 29 -44
8z"/>
<path d="M1790 7030 c-18 -11 -4 -42 17 -38 10 2 19 10 21 19 4 19 -19 31 -38
19z"/>
<path d="M9057 7034 c-4 -4 -7 -16 -7 -26 0 -13 7 -18 26 -18 21 0 25 4 22 22
-3 23 -27 35 -41 22z"/>
<path d="M1791 6926 c-14 -17 -7 -36 14 -36 22 0 29 20 13 36 -13 13 -16 13
-27 0z"/>
<path d="M9052 6913 c2 -10 12 -18 23 -18 11 0 21 8 23 18 3 13 -3 17 -23 17
-20 0 -26 -4 -23 -17z"/>
<path d="M1785 6820 c-4 -7 -3 -16 3 -22 14 -14 45 -2 40 15 -6 16 -34 21 -43
7z"/>
<path d="M9050 6811 c0 -23 23 -34 39 -18 19 19 12 37 -14 37 -18 0 -25 -5
-25 -19z"/>
<path d="M1784 6715 c-8 -19 12 -36 33 -28 19 7 12 37 -10 41 -9 2 -20 -4 -23
-13z"/>
<path d="M9050 6711 c0 -22 29 -36 43 -22 15 15 0 41 -23 41 -13 0 -20 -7 -20
-19z"/>
<path d="M1784 6615 c-4 -9 -2 -21 4 -27 15 -15 44 -1 40 19 -4 23 -36 29 -44
8z"/>
<path d="M4480 6588 c-217 -139 -204 -128 -187 -145 13 -14 29 -8 151 62 75
43 139 82 142 87 7 11 -14 38 -30 38 -6 0 -40 -19 -76 -42z"/>
<path d="M9054 6615 c-4 -9 -2 -21 4 -27 15 -15 44 -1 40 19 -4 23 -36 29 -44
8z"/>
<path d="M1784 6515 c-4 -9 -2 -21 4 -27 15 -15 44 -1 40 19 -4 23 -36 29 -44
8z"/>
<path d="M9054 6515 c-4 -9 -2 -21 4 -27 15 -15 44 -1 40 19 -4 23 -36 29 -44
8z"/>
<path d="M1784 6415 c-4 -9 -2 -21 4 -27 15 -15 44 -1 40 19 -4 23 -36 29 -44
8z"/>
<path d="M9054 6415 c-4 -9 -2 -21 4 -27 15 -15 44 -1 40 19 -4 23 -36 29 -44
8z"/>
<path d="M6511 6359 c-150 -25 -253 -126 -280 -274 -14 -76 -14 -460 0 -541
22 -125 111 -224 233 -260 81 -24 249 -25 328 -1 31 9 76 32 100 50 77 59 151
196 117 218 -30 19 -45 8 -72 -50 -48 -105 -114 -153 -235 -171 -86 -14 -193
-1 -256 30 -25 11 -62 41 -85 65 -64 69 -71 108 -71 397 0 270 6 307 63 381
59 78 208 119 348 98 127 -20 198 -75 241 -186 13 -33 20 -39 39 -37 40 6 43
18 19 76 -27 68 -89 140 -142 167 -84 43 -224 58 -347 38z"/>
<path d="M7501 6338 c-5 -13 -99 -251 -210 -529 -110 -278 -201 -511 -201
-518 0 -8 12 -11 32 -9 32 3 33 5 100 173 l67 170 252 0 252 0 66 -172 66
-173 39 0 c37 0 38 1 32 28 -4 15 -8 35 -9 44 -1 9 -4 15 -7 13 -3 -2 -96 221
-205 496 l-200 499 -33 0 c-25 0 -35 -5 -41 -22z m178 -418 l89 -225 -220 -3
c-122 -1 -223 0 -226 3 -3 3 13 52 35 108 109 270 173 436 173 449 0 38 15 21
36 -40 13 -37 64 -168 113 -292z"/>
<path d="M2930 5814 l0 -535 28 3 27 3 0 476 0 476 56 -106 c32 -58 118 -214
192 -346 124 -220 138 -240 164 -243 28 -3 33 5 195 295 91 164 178 322 192
351 15 28 27 52 29 52 1 0 1 -216 -1 -480 l-3 -480 31 0 30 0 0 536 0 535 -32
-3 c-30 -3 -39 -16 -232 -360 -111 -197 -204 -358 -207 -358 -6 0 -124 205
-350 608 -57 101 -66 112 -91 112 l-28 0 0 -536z"/>
<path d="M4115 6338 c-3 -7 -4 -247 -3 -533 l3 -520 333 -3 332 -2 0 30 0 30
-300 0 -300 0 0 225 0 225 255 0 255 0 0 30 0 30 -255 0 -255 0 0 220 0 220
290 0 290 0 0 30 0 30 -320 0 c-247 0 -322 -3 -325 -12z"/>
<path d="M4962 5818 l3 -533 180 -3 c205 -3 287 7 372 47 73 35 144 111 175
189 22 54 23 70 23 297 0 227 -1 243 -23 297 -29 71 -94 145 -161 181 -81 44
-163 57 -379 57 l-192 0 2 -532z m407 461 c129 -20 207 -74 253 -174 21 -46
23 -66 26 -260 3 -132 0 -229 -8 -261 -14 -67 -58 -135 -111 -174 -70 -50
-125 -62 -321 -67 l-178 -5 0 476 0 476 138 0 c75 0 166 -5 201 -11z"/>
<path d="M5935 6338 c-3 -7 -4 -247 -3 -533 l3 -520 30 0 30 0 0 530 0 530
-28 3 c-16 2 -29 -2 -32 -10z"/>
<path d="M1784 6315 c-4 -9 -2 -21 4 -27 15 -15 44 -1 40 19 -4 23 -36 29 -44
8z"/>
<path d="M9054 6315 c-4 -9 -2 -21 4 -27 15 -15 44 -1 40 19 -4 23 -36 29 -44
8z"/>
<path d="M787 6228 c-7 -18 -21 -60 -30 -93 -10 -33 -24 -82 -33 -108 -14 -44
-14 -53 4 -125 11 -42 23 -97 27 -122 8 -53 22 -107 64 -252 18 -59 36 -147
42 -195 13 -108 24 -145 55 -182 23 -28 30 -29 128 -36 97 -7 107 -6 145 16
56 31 53 52 -10 84 -76 39 -144 116 -176 200 -26 66 -27 77 -23 205 9 302 7
340 -19 405 -14 33 -35 73 -49 89 -13 17 -28 39 -33 50 -5 12 -13 28 -17 36
-5 8 -13 24 -19 35 -17 33 -41 30 -56 -7z"/>
<path d="M1784 6215 c-4 -9 -2 -21 4 -27 15 -15 44 -1 40 19 -4 23 -36 29 -44
8z"/>
<path d="M9054 6215 c-4 -9 -2 -21 4 -27 15 -15 44 -1 40 19 -4 23 -36 29 -44
8z"/>
<path d="M1784 6115 c-4 -9 -2 -21 4 -27 15 -15 44 -1 40 19 -4 23 -36 29 -44
8z"/>
<path d="M9054 6115 c-4 -9 -2 -21 4 -27 15 -15 44 -1 40 19 -4 23 -36 29 -44
8z"/>
<path d="M1786 6013 c-8 -20 1 -33 25 -33 12 0 19 7 19 19 0 23 -36 35 -44 14z"/>
<path d="M9063 6023 c-17 -6 -17 -40 0 -46 20 -8 39 8 35 28 -3 20 -16 26 -35
18z"/>
<path d="M9063 5923 c-15 -5 -17 -39 -4 -47 16 -10 41 5 41 24 0 19 -17 30
-37 23z"/>
<path d="M1780 5901 c0 -22 21 -33 40 -21 18 11 4 40 -20 40 -13 0 -20 -7 -20
-19z"/>
<path d="M1784 5805 c-4 -9 -2 -21 4 -27 15 -15 44 -1 40 19 -4 23 -36 29 -44
8z"/>
<path d="M9053 5804 c-3 -8 -1 -20 5 -26 16 -16 42 -2 42 22 0 24 -38 28 -47
4z"/>
<path d="M1784 5705 c-4 -9 -2 -21 4 -27 15 -15 44 -1 40 19 -4 23 -36 29 -44
8z"/>
<path d="M9054 5705 c-4 -9 -2 -21 4 -27 15 -15 44 -1 40 19 -4 23 -36 29 -44
8z"/>
<path d="M1784 5605 c-4 -9 -2 -21 4 -27 15 -15 44 -1 40 19 -4 23 -36 29 -44
8z"/>
<path d="M9054 5605 c-4 -9 -2 -21 4 -27 15 -15 44 -1 40 19 -4 23 -36 29 -44
8z"/>
<path d="M9520 5575 c0 -16 -6 -25 -16 -25 -8 0 -22 -17 -31 -37 -8 -21 -22
-45 -30 -55 -9 -11 -11 -18 -4 -23 6 -3 11 -11 11 -16 0 -6 -4 -8 -8 -5 -5 3
-16 -9 -24 -27 -12 -26 -13 -38 -3 -67 7 -20 20 -37 30 -39 10 -2 43 -21 72
-43 29 -21 58 -36 64 -32 6 4 14 3 18 -2 15 -21 139 -42 155 -26 4 4 11 7 14
8 54 4 77 22 98 77 3 9 13 17 20 17 16 0 19 16 4 25 -6 4 -8 10 -5 15 3 4 -3
7 -12 6 -17 -1 -24 25 -27 95 -1 15 -6 25 -12 22 -6 -2 -18 13 -27 34 -14 36
-14 39 9 60 31 28 32 63 3 63 -12 0 -27 -6 -33 -14 -8 -11 -39 -15 -113 -18
-56 -1 -105 0 -109 5 -4 4 -2 7 5 7 7 0 9 5 6 10 -3 6 -17 10 -31 10 -19 0
-24 -5 -24 -25z"/>
<path d="M1784 5505 c-4 -9 -2 -21 4 -27 15 -15 44 -1 40 19 -4 23 -36 29 -44
8z"/>
<path d="M9054 5505 c-4 -9 -2 -21 4 -27 15 -15 44 -1 40 19 -4 23 -36 29 -44
8z"/>
<path d="M1784 5405 c-4 -9 -2 -21 4 -27 15 -15 44 -1 40 19 -4 23 -36 29 -44
8z"/>
<path d="M9054 5405 c-4 -9 -2 -21 4 -27 15 -15 44 -1 40 19 -4 23 -36 29 -44
8z"/>
<path d="M1784 5305 c-4 -9 -2 -21 4 -27 15 -15 44 -1 40 19 -4 23 -36 29 -44
8z"/>
<path d="M9054 5306 c-8 -21 3 -36 27 -36 15 0 20 6 17 22 -4 27 -35 37 -44
14z"/>
<path d="M2464 5240 c-27 -11 -62 -71 -70 -119 -8 -53 -20 -69 -36 -53 -6 6
-23 12 -36 12 -19 0 -23 -5 -20 -22 3 -23 48 -40 48 -19 0 6 7 11 16 11 13 0
14 -3 4 -15 -6 -8 -9 -18 -6 -24 3 -5 2 -11 -3 -13 -5 -1 3 -34 17 -71 15 -37
28 -63 30 -57 2 5 10 10 17 10 20 0 75 52 75 72 0 10 5 18 11 18 8 0 7 6 -2
16 -12 15 -11 16 10 9 20 -6 23 -4 18 9 -4 11 -1 16 10 16 9 0 14 3 10 6 -3 3
-2 17 4 31 5 13 5 22 1 19 -4 -2 -8 4 -8 14 0 10 5 16 10 13 5 -4 6 17 2 53
-9 80 -43 108 -102 84z"/>
<path d="M1787 5214 c-4 -4 -7 -16 -7 -26 0 -13 7 -18 26 -18 21 0 25 4 22 22
-3 23 -27 35 -41 22z"/>
<path d="M9057 5214 c-4 -4 -7 -16 -7 -26 0 -13 7 -18 26 -18 21 0 25 4 22 22
-3 23 -27 35 -41 22z"/>
<path d="M1789 5110 c-11 -7 -10 -15 4 -44 25 -54 52 -45 41 12 -7 33 -23 45
-45 32z"/>
<path d="M9057 5113 c-10 -10 -8 -43 2 -43 5 0 13 -9 16 -20 11 -33 25 -22 25
19 0 26 -5 41 -16 45 -19 7 -19 7 -27 -1z"/>
<path d="M7765 5070 c-8 -26 1 -40 26 -40 24 0 27 45 3 54 -22 8 -22 8 -29
-14z"/>
<path d="M7867 5083 c-4 -3 -7 -17 -7 -30 0 -18 6 -23 24 -23 30 0 40 24 20
45 -17 16 -27 19 -37 8z"/>
<path d="M7962 5073 c-13 -26 -4 -43 24 -43 29 0 41 24 24 45 -17 20 -37 19
-48 -2z"/>
<path d="M1904 5065 c-7 -18 3 -35 21 -35 15 0 24 19 18 38 -6 17 -32 15 -39
-3z"/>
<path d="M2004 5065 c-4 -9 -2 -21 4 -27 15 -15 44 -1 40 19 -4 23 -36 29 -44
8z"/>
<path d="M2104 5065 c-4 -9 -2 -21 4 -27 15 -15 44 -1 40 19 -4 23 -36 29 -44
8z"/>
<path d="M2204 5065 c-4 -9 -2 -21 4 -27 15 -15 44 -1 40 19 -4 23 -36 29 -44
8z"/>
<path d="M2604 5065 c-8 -20 4 -35 27 -35 14 0 19 7 19 25 0 18 -5 25 -20 25
-11 0 -23 -7 -26 -15z"/>
<path d="M2710 5060 c0 -24 29 -38 40 -20 12 19 1 40 -21 40 -12 0 -19 -7 -19
-20z"/>
<path d="M2813 5064 c-3 -8 -1 -20 5 -26 15 -15 43 8 35 28 -7 19 -32 18 -40
-2z"/>
<path d="M2914 5065 c-7 -18 3 -35 21 -35 15 0 28 27 19 41 -8 14 -34 11 -40
-6z"/>
<path d="M3014 5065 c-4 -9 -2 -21 4 -27 15 -15 44 -1 40 19 -4 23 -36 29 -44
8z"/>
<path d="M3114 5065 c-4 -9 -2 -21 4 -27 15 -15 44 -1 40 19 -4 23 -36 29 -44
8z"/>
<path d="M3214 5065 c-4 -9 -2 -21 4 -27 15 -15 44 -1 40 19 -4 23 -36 29 -44
8z"/>
<path d="M3314 5065 c-4 -9 -2 -21 4 -27 15 -15 44 -1 40 19 -4 23 -36 29 -44
8z"/>
<path d="M3413 5064 c-3 -8 -1 -20 5 -26 16 -16 42 -2 42 22 0 24 -38 28 -47
4z"/>
<path d="M3516 5064 c-8 -21 1 -34 25 -34 14 0 19 7 19 25 0 29 -34 36 -44 9z"/>
<path d="M3618 5068 c-8 -21 2 -38 22 -38 19 0 30 17 23 38 -3 6 -13 12 -23
12 -10 0 -20 -6 -22 -12z"/>
<path d="M3720 5060 c0 -23 26 -38 41 -23 14 14 0 43 -22 43 -12 0 -19 -7 -19
-20z"/>
<path d="M3824 5065 c-4 -9 -2 -21 4 -27 15 -15 44 -1 40 19 -4 23 -36 29 -44
8z"/>
<path d="M3924 5065 c-4 -9 -2 -21 4 -27 15 -15 44 -1 40 19 -4 23 -36 29 -44
8z"/>
<path d="M4024 5065 c-4 -9 -2 -21 4 -27 15 -15 44 -1 40 19 -4 23 -36 29 -44
8z"/>
<path d="M4124 5065 c-4 -9 -2 -21 4 -27 15 -15 44 -1 40 19 -4 23 -36 29 -44
8z"/>
<path d="M4223 5064 c-3 -8 -1 -20 5 -26 16 -16 42 -2 42 22 0 24 -38 28 -47
4z"/>
<path d="M4324 5065 c-4 -9 -2 -21 4 -27 15 -15 44 -1 40 19 -4 23 -36 29 -44
8z"/>
<path d="M4427 5067 c-8 -20 9 -41 27 -34 23 9 21 47 -3 47 -10 0 -21 -6 -24
-13z"/>
<path d="M4527 5067 c-3 -8 -2 -20 3 -27 11 -18 42 -4 38 17 -4 22 -34 29 -41
10z"/>
<path d="M4634 5065 c-7 -18 3 -35 21 -35 15 0 24 19 18 38 -6 17 -32 15 -39
-3z"/>
<path d="M4734 5065 c-7 -18 3 -35 21 -35 18 0 26 15 19 34 -8 20 -33 21 -40
1z"/>
<path d="M4834 5065 c-4 -9 -2 -21 4 -27 15 -15 44 -1 40 19 -4 23 -36 29 -44
8z"/>
<path d="M4934 5065 c-4 -9 -2 -21 4 -27 15 -15 44 -1 40 19 -4 23 -36 29 -44
8z"/>
<path d="M5034 5065 c-4 -9 -2 -21 4 -27 15 -15 44 -1 40 19 -4 23 -36 29 -44
8z"/>
<path d="M5134 5065 c-4 -9 -2 -21 4 -27 15 -15 44 -1 40 19 -4 23 -36 29 -44
8z"/>
<path d="M5234 5065 c-4 -9 -2 -21 4 -27 15 -15 44 -1 40 19 -4 23 -36 29 -44
8z"/>
<path d="M5337 5067 c-3 -8 -2 -20 3 -27 11 -18 42 -4 38 17 -4 22 -34 29 -41
10z"/>
<path d="M5442 5058 c2 -13 10 -23 18 -23 8 0 16 10 18 23 3 17 -2 22 -18 22
-16 0 -21 -5 -18 -22z"/>
<path d="M5540 5061 c0 -26 17 -36 35 -21 18 15 8 40 -16 40 -12 0 -19 -7 -19
-19z"/>
<path d="M5644 5065 c-7 -18 3 -35 21 -35 15 0 24 19 18 38 -6 17 -32 15 -39
-3z"/>
<path d="M5744 5065 c-4 -9 -2 -21 4 -27 15 -15 44 -1 40 19 -4 23 -36 29 -44
8z"/>
<path d="M5844 5065 c-4 -9 -2 -21 4 -27 15 -15 44 -1 40 19 -4 23 -36 29 -44
8z"/>
<path d="M5944 5065 c-4 -9 -2 -21 4 -27 15 -15 44 -1 40 19 -4 23 -36 29 -44
8z"/>
<path d="M6044 5065 c-4 -9 -2 -21 4 -27 15 -15 44 -1 40 19 -4 23 -36 29 -44
8z"/>
<path d="M6146 5064 c-4 -10 -2 -22 3 -27 14 -14 43 0 39 20 -4 24 -34 28 -42
7z"/>
<path d="M6247 5067 c-3 -8 -2 -20 3 -27 11 -18 42 -4 38 17 -4 22 -34 29 -41
10z"/>
<path d="M6352 5058 c2 -12 10 -23 18 -23 22 0 19 39 -3 43 -15 3 -18 -1 -15
-20z"/>
<path d="M6453 5064 c-8 -21 13 -42 28 -27 13 13 5 43 -11 43 -6 0 -13 -7 -17
-16z"/>
<path d="M6554 5065 c-7 -18 3 -35 21 -35 15 0 24 19 18 38 -6 17 -32 15 -39
-3z"/>
<path d="M6654 5065 c-7 -18 3 -35 21 -35 18 0 26 15 19 34 -8 20 -33 21 -40
1z"/>
<path d="M6754 5065 c-4 -9 -2 -21 4 -27 15 -15 44 -1 40 19 -4 23 -36 29 -44
8z"/>
<path d="M6854 5065 c-4 -9 -2 -21 4 -27 15 -15 44 -1 40 19 -4 23 -36 29 -44
8z"/>
<path d="M6954 5065 c-4 -9 -2 -21 4 -27 15 -15 44 -1 40 19 -4 23 -36 29 -44
8z"/>
<path d="M7056 5064 c-4 -10 -1 -21 6 -26 19 -11 33 -4 33 18 0 24 -30 30 -39
8z"/>
<path d="M7161 5066 c-9 -10 -8 -16 4 -26 19 -16 41 1 32 24 -8 20 -21 20 -36
2z"/>
<path d="M7263 5064 c-8 -21 13 -42 28 -27 13 13 5 43 -11 43 -6 0 -13 -7 -17
-16z"/>
<path d="M7363 5064 c-3 -8 -1 -20 6 -27 14 -14 47 15 37 32 -10 16 -36 13
-43 -5z"/>
<path d="M7464 5065 c-4 -9 -2 -21 4 -27 15 -15 44 -1 40 19 -4 23 -36 29 -44
8z"/>
<path d="M7564 5065 c-4 -9 -2 -21 4 -27 15 -15 44 -1 40 19 -4 23 -36 29 -44
8z"/>
<path d="M7660 5056 c0 -21 5 -26 26 -26 21 0 25 4 22 23 -2 14 -11 23 -25 25
-19 3 -23 -1 -23 -22z"/>
<path d="M8062 5058 c4 -31 53 -34 53 -3 0 15 -8 21 -28 23 -25 3 -28 0 -25
-20z"/>
<path d="M8164 5065 c-4 -9 -2 -21 4 -27 16 -16 47 -5 47 17 0 26 -42 34 -51
10z"/>
<path d="M8262 5067 c-10 -11 -9 -17 2 -26 21 -18 51 -9 51 14 0 24 -36 32
-53 12z"/>
<path d="M8367 5073 c-13 -13 -7 -42 11 -47 19 -6 -25 -1 -47 5 -7 2 -16 -2
-19 -10 -3 -9 0 -11 8 -6 8 5 11 4 6 -3 -4 -7 -17 -8 -36 -2 -35 10 -40 4 -7
-11 21 -9 21 -9 -4 -5 -14 3 -43 1 -64 -5 -35 -10 -37 -12 -19 -21 10 -6 20
-12 22 -13 7 -6 -12 -35 -24 -35 -7 0 -19 -8 -26 -17 -7 -10 -25 -24 -40 -32
-16 -8 -28 -18 -28 -23 0 -4 -18 -11 -40 -14 -37 -6 -79 -34 -51 -34 21 0 11
-16 -18 -27 -20 -7 -35 -23 -45 -47 -9 -22 -22 -36 -33 -37 -11 0 -13 -3 -5
-6 10 -4 10 -8 2 -18 -6 -8 -12 -27 -12 -44 -1 -17 -5 -28 -10 -25 -4 3 -9 -2
-9 -10 -1 -9 -2 -21 -3 -28 -1 -13 36 -21 44 -8 3 4 14 10 24 12 16 2 22 -5
28 -37 8 -39 10 -41 48 -42 22 -1 42 2 45 8 4 5 16 9 27 9 24 0 198 81 219
102 8 8 62 37 120 66 101 50 129 75 129 113 0 34 -36 126 -57 147 -19 19 -22
27 -11 33 10 7 10 9 0 9 -8 0 -10 5 -6 13 4 6 -3 3 -16 -8 -13 -11 -21 -15
-17 -9 7 11 -26 44 -45 44 -7 0 -6 6 4 18 20 24 12 52 -16 52 -12 0 -26 -3
-29 -7z m-109 -100 c-10 -2 -28 -2 -40 0 -13 2 -5 4 17 4 22 1 32 -1 23 -4z"/>
<path d="M8467 5067 c-8 -21 8 -39 29 -35 27 5 25 42 -2 46 -12 2 -24 -3 -27
-11z"/>
<path d="M8574 5065 c-4 -9 -2 -21 4 -27 15 -15 44 -1 40 19 -4 23 -36 29 -44
8z"/>
<path d="M8674 5065 c-4 -9 -2 -21 4 -27 15 -15 44 -1 40 19 -4 23 -36 29 -44
8z"/>
<path d="M8774 5065 c-4 -9 -2 -21 4 -27 15 -15 44 -1 40 19 -4 23 -36 29 -44
8z"/>
<path d="M8874 5065 c-4 -9 -2 -21 4 -27 15 -15 44 -1 40 19 -4 23 -36 29 -44
8z"/>
<path d="M8973 5064 c-3 -8 -1 -20 5 -26 16 -16 42 -2 42 22 0 24 -38 28 -47
4z"/>
<path d="M8230 5040 c0 -5 5 -10 11 -10 5 0 7 5 4 10 -3 6 -8 10 -11 10 -2 0
-4 -4 -4 -10z"/>
<path d="M6676 4511 c-2 -3 -4 -21 -4 -39 -1 -26 4 -35 24 -42 29 -11 78 -13
112 -4 24 7 30 24 8 24 -8 0 -16 5 -18 12 -2 6 -15 13 -29 15 -13 2 -31 11
-39 21 -15 18 -47 25 -54 13z"/>
<path d="M7518 4400 c-51 -19 -91 -50 -65 -50 8 0 39 -8 70 -19 32 -10 57 -16
57 -12 0 3 28 7 63 8 93 2 106 5 113 27 8 23 -19 46 -53 46 -13 0 -23 5 -23
10 0 16 -111 10 -162 -10z"/>
<path d="M6470 3683 c-14 -2 -63 -12 -110 -23 -47 -10 -143 -31 -215 -45 -71
-14 -182 -39 -245 -55 -63 -16 -146 -34 -185 -40 -38 -6 -86 -15 -105 -20 -19
-5 -55 -11 -80 -14 -51 -7 -113 -25 -245 -68 -109 -36 -197 -57 -290 -69 -95
-11 -112 -16 -135 -39 -11 -11 -29 -20 -39 -20 -11 0 -21 -4 -23 -9 -4 -13
-65 -15 -156 -6 -77 8 -91 17 -71 41 10 13 10 17 -2 25 -8 5 -17 9 -22 9 -4 0
-6 6 -5 13 6 26 -98 4 -162 -34 -8 -5 -29 -16 -47 -24 -17 -8 -37 -20 -45 -27
-17 -16 -91 -52 -137 -67 -47 -15 -108 -14 -188 5 -51 12 -92 14 -169 9 -98
-7 -103 -6 -175 24 -122 52 -154 47 -646 -95 -156 -45 -235 -54 -276 -33 -45
24 -127 16 -222 -23 -50 -20 -119 -42 -154 -49 -50 -11 -65 -18 -72 -36 -5
-13 -14 -23 -21 -24 -7 0 3 -5 22 -10 19 -5 55 -18 80 -28 25 -11 67 -27 94
-37 31 -10 66 -34 93 -61 l43 -44 -25 -25 c-30 -29 -58 -30 -157 -4 -42 11
-123 27 -180 36 -69 11 -117 25 -145 41 -54 31 -58 38 -43 74 13 30 21 34 99
47 66 11 63 29 -6 37 -32 4 -101 13 -153 21 -198 29 -828 14 -1065 -26 -33 -5
-114 -17 -180 -25 -214 -27 -497 -131 -647 -239 l-57 -41 -1 -57 c0 -32 4 -58
9 -58 5 0 21 7 37 15 37 19 61 5 91 -56 55 -110 3 -229 -101 -229 l-36 0 0
-59 0 -60 138 2 c130 2 140 1 194 -25 68 -32 131 -50 258 -73 52 -9 115 -23
140 -32 24 -8 58 -16 75 -18 16 -2 46 -6 65 -9 19 -4 82 -3 140 2 58 5 107 5
110 2 11 -15 37 -17 69 -4 52 21 104 18 128 -9 46 -51 58 -80 63 -161 l5 -79
34 -12 c38 -12 81 -57 81 -84 0 -21 -30 -51 -52 -51 -13 0 -27 -26 -28 -51 0
-10 110 -29 161 -29 24 0 60 -2 79 -4 50 -7 278 -9 288 -2 5 3 48 10 97 16 49
6 103 17 120 25 43 20 98 32 195 45 109 15 112 15 130 23 8 3 47 13 85 22 64
14 189 49 225 63 8 3 20 6 25 8 82 20 111 31 118 41 4 7 21 13 37 13 16 0 32
5 36 11 3 6 19 9 35 7 16 -3 29 -1 29 4 0 17 56 30 125 29 39 0 96 4 127 10
78 13 145 14 161 0 8 -6 35 -9 63 -6 187 17 299 29 434 45 499 62 638 71 725
50 44 -11 563 -14 590 -4 15 6 13 10 -10 32 l-27 24 42 19 c23 11 48 19 56 19
8 0 22 9 31 20 10 11 27 20 39 20 12 0 27 7 34 15 7 8 9 15 5 15 -4 0 -2 7 5
15 7 8 9 15 4 15 -5 0 0 8 11 18 12 9 27 34 34 56 13 37 30 65 81 135 32 43
175 139 315 212 340 177 615 376 735 535 25 32 51 65 57 72 7 7 39 65 70 128
l57 114 -13 62 c-24 119 -65 169 -152 187 -48 11 -157 13 -209 4z m-3437 -702
c108 -47 114 -137 13 -209 -47 -34 -53 -57 -12 -46 17 4 32 -3 59 -29 19 -20
44 -38 55 -41 11 -4 30 -27 42 -52 17 -38 19 -51 11 -77 -15 -45 -64 -88 -112
-98 -35 -8 -43 -7 -55 8 -7 10 -14 24 -14 31 0 6 -4 12 -8 12 -4 0 -8 9 -9 20
-1 11 -16 50 -32 85 -36 77 -37 86 -11 110 25 22 19 31 -8 14 -16 -10 -29 -10
-61 0 -54 16 -97 73 -106 142 -9 62 7 89 73 123 57 30 115 33 175 7z m-1793
-82 c57 -5 145 -19 196 -29 142 -29 194 -61 194 -116 0 -29 -6 -37 -47 -61
-59 -34 -123 -85 -123 -98 0 -6 -17 -31 -37 -57 -21 -26 -46 -59 -57 -74 -25
-35 -70 -52 -142 -55 -54 -2 -66 2 -117 34 -61 39 -77 43 -107 27 -28 -15
-194 -47 -462 -90 l-137 -22 -34 21 c-46 28 -66 91 -44 143 19 46 70 102 155
171 138 113 332 184 562 206 47 5 88 9 91 10 4 0 53 -4 109 -10z m3695 -230
c5 -5 29 -9 54 -9 56 0 91 -29 91 -74 0 -37 -7 -49 -37 -65 -29 -15 -65 -5
-94 25 -16 17 -33 24 -59 24 -41 0 -80 29 -80 61 0 11 11 31 24 44 22 22 28
23 58 13 18 -6 37 -15 43 -19z m-2584 -246 c18 -21 18 -93 0 -126 -15 -28 -85
-62 -104 -51 -81 46 -75 120 13 173 42 25 73 27 91 4z"/>
<path d="M8741 2830 c-32 -5 -51 -15 -68 -36 -32 -40 -29 -56 17 -93 22 -18
47 -48 55 -67 8 -18 18 -34 24 -34 5 0 14 -13 19 -29 13 -36 -5 -104 -24 -97
-7 3 -21 -12 -33 -35 -25 -47 -25 -50 -6 -43 21 9 19 -3 -7 -31 -61 -64 -114
-131 -125 -158 -22 -50 -93 -127 -167 -178 -69 -49 -191 -94 -416 -154 -85
-23 -160 -53 -185 -75 -73 -63 -195 -121 -355 -168 -127 -37 -366 -85 -510
-103 -216 -25 -195 -18 -198 -66 -2 -30 -10 -47 -25 -58 -20 -15 -14 -16 83
-10 58 4 121 10 140 15 19 5 65 11 101 15 81 8 103 -7 117 -79 15 -70 1 -96
-52 -97 -40 -2 -40 -2 -9 -8 32 -6 32 -6 15 -29 -17 -22 -20 -22 -107 -13 -96
9 -262 4 -270 -9 -3 -5 28 -11 68 -15 39 -4 115 -13 169 -20 78 -10 106 -10
151 0 31 7 60 16 66 19 5 4 52 9 103 12 51 3 116 12 143 19 28 7 77 16 110 20
137 15 353 58 555 109 118 29 294 68 390 85 264 47 409 91 461 140 11 10 23
39 28 66 7 37 18 56 50 85 23 21 41 43 41 48 0 6 11 27 24 46 18 27 22 42 17
72 -8 50 -26 53 -51 11 -25 -42 -68 -77 -130 -104 -25 -11 -64 -28 -88 -38
-32 -15 -41 -23 -36 -37 6 -21 -21 -26 -29 -5 -3 7 -6 5 -6 -5 -1 -10 -8 -18
-17 -18 -8 0 -12 5 -9 10 8 13 -56 4 -150 -21 -38 -11 -83 -19 -99 -19 -51 0
-257 -39 -506 -95 -213 -49 -235 -53 -320 -65 -47 -6 -101 -15 -120 -20 -45
-10 -373 -10 -391 0 -27 17 177 34 236 20 25 -6 59 -6 90 0 28 5 88 14 135 20
114 15 133 23 218 93 74 60 113 76 186 77 40 0 252 67 365 115 36 15 90 44
120 65 55 37 121 108 121 129 0 24 -26 8 -82 -49 -58 -58 -113 -87 -132 -69
-19 18 15 59 82 98 38 23 79 53 92 66 23 24 50 33 50 17 0 -4 -5 -13 -11 -19
-15 -15 -3 -33 23 -33 20 0 108 -59 155 -104 11 -12 38 -30 58 -40 43 -23 50
-17 60 51 5 32 2 50 -12 74 -21 36 -102 99 -167 131 -58 28 -60 45 -25 158 38
120 32 114 139 121 155 10 200 26 219 80 11 32 9 40 -29 109 -33 60 -50 109
-50 143 0 48 -29 90 -75 107 -29 11 -136 11 -204 0z m-753 -1082 c-6 -18 -28
-21 -28 -4 0 9 7 16 16 16 9 0 14 -5 12 -12z m-98 -42 c0 -13 -34 -36 -52 -36
-20 0 -21 1 -3 20 16 17 55 28 55 16z m-80 -54 c0 -36 -185 -124 -226 -108
-29 11 1 32 107 76 97 40 119 46 119 32z m946 -7 c-11 -8 -28 -15 -37 -15 -24
0 -34 -19 -15 -26 25 -10 -3 -29 -46 -31 -21 -2 -55 -12 -78 -24 -22 -12 -84
-31 -137 -44 -54 -12 -179 -45 -278 -72 -215 -60 -346 -85 -580 -108 -33 -4
-70 -9 -82 -12 -16 -3 -24 2 -35 23 -15 31 -38 43 -38 20 0 -21 -26 -21 -34 0
-4 9 -5 18 -3 20 1 2 63 8 137 14 195 16 370 45 575 95 99 24 200 47 225 50
78 11 144 28 157 41 7 6 44 17 82 24 39 6 76 19 83 27 16 20 44 30 87 31 34 1
35 0 17 -13z m114 -24 c-34 -18 -130 -38 -130 -27 0 3 20 11 45 17 25 6 48 15
51 20 3 5 20 9 37 9 l32 -1 -35 -18z m-240 -75 c0 -3 -4 -8 -10 -11 -5 -3 -10
-1 -10 4 0 6 5 11 10 11 6 0 10 -2 10 -4z m-1290 -186 c0 -11 -4 -20 -9 -20
-11 0 -22 26 -14 34 12 12 23 5 23 -14z"/>
<path d="M6707 2722 c-58 -16 -109 -36 -124 -50 -23 -20 -25 -28 -19 -70 15
-114 73 -129 221 -56 103 51 131 81 119 128 -6 23 -70 77 -90 75 -5 0 -53 -13
-107 -27z"/>
<path d="M9955 2610 c3 -5 10 -10 16 -10 5 0 9 5 9 10 0 6 -7 10 -16 10 -8 0
-12 -4 -9 -10z"/>
<path d="M8489 2393 c-5 -16 -12 -34 -14 -40 -2 -7 -15 -13 -29 -13 -17 0 -45
-20 -87 -60 -53 -51 -68 -60 -93 -58 -27 3 -31 7 -28 30 l3 27 -183 0 c-191 1
-301 -8 -428 -36 -60 -14 -127 -17 -327 -17 l-253 1 -5 -36 c-3 -20 -8 -49
-10 -64 -3 -19 0 -30 11 -34 9 -3 32 -21 52 -39 20 -18 39 -31 42 -29 4 2 110
7 236 11 126 4 281 12 344 18 164 16 177 14 201 -41 10 -24 25 -51 33 -58 8
-8 16 -20 18 -27 8 -24 89 -15 151 16 60 31 69 42 40 49 -10 2 -4 3 12 1 30
-4 59 7 55 20 -1 4 0 20 3 35 8 38 58 76 149 111 40 16 82 38 94 49 22 21 22
22 6 72 l-17 52 33 27 c22 18 31 32 26 43 -9 25 -23 21 -35 -10z"/>
<path d="M6825 2193 c-22 -1 -103 -8 -180 -13 -209 -17 -605 -69 -805 -106
-145 -27 -227 -52 -307 -94 -43 -22 -84 -40 -91 -40 -26 0 -82 -46 -87 -72 -4
-15 -14 -33 -22 -40 -9 -7 -29 -33 -45 -57 -40 -63 -39 -144 2 -220 16 -30 27
-58 24 -62 -3 -5 14 -27 36 -49 45 -45 47 -70 5 -70 -36 0 -31 -16 8 -23 222
-41 344 -58 572 -80 17 -2 21 5 23 39 3 40 2 42 -61 83 -61 39 -65 44 -70 87
-2 25 -6 47 -8 49 -2 2 -58 13 -124 24 -128 22 -213 45 -229 61 -6 6 -18 10
-29 10 -29 0 -14 24 19 30 20 4 30 12 32 27 2 11 11 24 20 27 9 3 24 10 32 15
39 23 120 56 232 92 109 36 139 41 261 48 133 8 138 9 176 39 33 26 57 34 157
52 141 25 340 49 406 50 45 0 47 -1 58 -36 8 -24 10 -63 6 -114 -7 -75 -6 -80
27 -147 35 -68 45 -77 116 -104 47 -18 134 -13 187 10 24 11 90 25 145 31 138
15 303 77 394 146 56 43 47 56 -32 50 -141 -11 -391 -19 -408 -12 -14 5 -15 9
-6 20 8 9 44 17 99 21 197 15 203 50 7 39 -73 -3 -163 -3 -201 1 -64 7 -70 10
-116 56 -44 44 -66 61 -55 42 3 -5 1 -17 -2 -27 -4 -10 -1 -41 6 -69 14 -56
12 -64 -24 -78 -29 -11 -79 11 -86 38 -11 40 -6 226 7 257 14 35 5 77 -16 74
-7 -1 -31 -3 -53 -5z m290 -338 c0 -13 -8 -21 -24 -23 -32 -5 -48 12 -31 33
18 22 55 15 55 -10z"/>
<path d="M7810 1909 c0 -5 5 -7 10 -4 6 3 10 8 10 11 0 2 -4 4 -10 4 -5 0 -10
-5 -10 -11z"/>
<path d="M6054 1605 c-74 -14 -149 -45 -126 -53 7 -2 19 1 27 8 25 20 187 40
335 40 157 0 307 -19 345 -44 28 -19 35 -20 35 -6 0 21 -52 42 -137 56 -109
17 -381 17 -479 -1z"/>
<path d="M5870 1540 c0 -15 59 -42 83 -38 17 3 12 7 -20 18 -24 7 -43 17 -43
22 0 4 -4 8 -10 8 -5 0 -10 -4 -10 -10z"/>
<path d="M6700 1530 c-13 -8 -12 -10 3 -10 9 0 17 5 17 10 0 12 -1 12 -20 0z"/>
<path d="M6008 1493 c7 -3 16 -2 19 1 4 3 -2 6 -13 5 -11 0 -14 -3 -6 -6z"/>
<path d="M6318 1473 c34 -2 88 -2 120 0 31 2 3 3 -63 3 -66 0 -92 -1 -57 -3z"/>
<path d="M8885 1455 c-5 -2 -50 -15 -100 -30 -49 -14 -103 -32 -120 -39 -16
-8 -47 -17 -67 -20 -21 -4 -38 -11 -38 -16 0 -6 -6 -10 -14 -10 -20 0 -31 -19
-18 -32 14 -14 53 -4 81 22 13 11 27 17 32 14 12 -7 131 16 147 28 6 6 12 7
12 3 0 -5 8 -1 18 7 9 9 38 25 65 36 59 26 61 56 2 37z"/>
<path d="M8432 1296 c-42 -16 -58 -31 -39 -39 19 -7 74 21 74 38 0 8 -1 14 -1
14 -1 -1 -16 -7 -34 -13z"/>
<path d="M8480 1285 c0 -8 5 -15 10 -15 6 0 10 7 10 15 0 8 -4 15 -10 15 -5 0
-10 -7 -10 -15z"/>
<path d="M896 1221 c-4 -6 -3 -11 3 -11 5 0 16 -6 23 -13 7 -7 25 -18 41 -24
15 -7 31 -23 36 -36 5 -12 19 -28 32 -34 27 -13 162 -37 294 -52 50 -6 110
-13 135 -16 25 -3 90 -10 145 -15 55 -6 127 -16 160 -24 33 -8 104 -17 157
-20 54 -4 130 -13 170 -21 40 -8 130 -19 199 -25 70 -6 142 -15 160 -21 19 -5
57 -9 85 -8 27 2 54 0 60 -3 5 -3 39 -11 76 -18 50 -10 76 -11 102 -3 27 8 38
8 46 -2 6 -7 30 -15 53 -18 23 -3 87 -12 142 -21 55 -9 152 -22 215 -31 63 -8
152 -19 197 -25 45 -6 103 -13 130 -15 26 -3 80 -9 118 -15 39 -5 124 -17 190
-25 66 -9 165 -23 220 -31 87 -12 403 -53 665 -85 47 -5 117 -14 155 -19 39
-5 129 -16 200 -25 72 -8 191 -25 265 -36 74 -11 169 -24 210 -29 41 -5 86
-12 100 -14 36 -7 219 -24 340 -32 61 -4 150 -1 212 5 107 12 156 22 388 86
69 19 170 46 225 60 55 14 132 34 170 45 39 11 88 24 110 29 22 5 119 30 215
56 233 63 470 126 498 132 12 3 22 9 22 14 0 9 -15 7 -103 -16 -34 -9 -123
-32 -197 -50 -74 -19 -162 -41 -195 -50 -33 -9 -91 -23 -130 -31 -38 -8 -82
-21 -99 -29 -16 -8 -41 -15 -56 -15 -15 0 -40 -4 -56 -9 -16 -5 -72 -19 -124
-31 -52 -12 -114 -30 -138 -40 -23 -11 -78 -24 -121 -30 -76 -10 -160 -32
-250 -65 -54 -19 -232 -31 -257 -17 -15 8 -11 12 27 19 43 8 44 9 46 50 1 39
0 41 -33 48 -76 14 -180 -22 -123 -43 15 -6 18 -11 11 -16 -19 -12 -14 -24 16
-40 26 -15 25 -15 -38 -16 -39 0 -105 10 -160 24 -52 14 -113 27 -135 30 -146
18 -221 39 -209 57 4 8 0 9 -15 4 -15 -4 -21 -2 -21 8 0 19 -91 32 -215 29
-49 0 -83 2 -75 5 16 7 -77 32 -145 39 -22 2 -65 6 -95 10 -30 3 -86 8 -125
11 -38 2 -74 8 -80 13 -5 4 -53 11 -105 14 -52 4 -111 11 -130 15 -31 7 -28 8
35 13 39 4 71 2 73 -3 2 -5 31 -9 63 -9 35 0 58 4 54 9 -3 6 7 8 22 6 16 -2
54 -4 87 -4 47 -1 57 -4 52 -16 -4 -10 1 -15 15 -15 11 0 18 4 14 9 -3 5 -1
12 5 16 5 3 10 1 10 -4 0 -6 16 -11 35 -11 34 0 48 -14 23 -23 -7 -2 19 -7 57
-11 39 -4 84 -10 100 -12 28 -5 29 -5 10 9 -11 8 -35 14 -52 14 -18 0 -41 7
-51 16 -19 17 -82 31 -177 41 -138 14 -243 26 -265 31 -27 6 -394 41 -570 55
-208 17 -458 40 -600 55 -80 9 -181 18 -225 20 -93 5 -289 22 -337 29 -82 13
-157 16 -163 6 -4 -6 5 -10 20 -10 16 0 24 -4 19 -11 -8 -14 -49 -3 -83 22
-20 15 -45 20 -109 22 -45 1 -82 5 -82 10 0 4 -13 7 -30 7 -16 0 -50 5 -74 12
-42 11 -46 10 -65 -13 -19 -23 -20 -23 -21 -4 0 18 -11 23 -72 34 -40 8 -98
15 -128 17 -71 4 -198 20 -275 33 -33 6 -87 13 -120 15 -79 6 -214 24 -225 31
-4 3 -46 10 -92 15 -45 5 -108 15 -138 20 -30 6 -82 12 -115 13 -33 2 -70 9
-82 15 -32 18 -168 28 -177 13z m244 -59 c0 -13 -12 -22 -22 -16 -10 6 -1 24
13 24 5 0 9 -4 9 -8z m1313 -164 c27 -13 36 -28 17 -28 -5 0 -24 9 -42 20 -36
22 -18 27 25 8z m-58 -8 c3 -5 2 -10 -4 -10 -5 0 -13 5 -16 10 -3 6 -2 10 4
10 5 0 13 -4 16 -10z m255 -24 c0 -28 -1 -30 -8 -21 -4 6 -25 12 -47 13 -61 6
-61 17 1 15 30 0 54 -4 54 -7z m333 -23 c-28 -11 -10 -22 45 -27 31 -3 76 -8
100 -12 23 -3 55 -3 70 2 l27 7 -30 8 c-21 6 -16 7 20 3 28 -3 61 -5 74 -5 50
1 43 -14 -9 -20 l-55 -6 68 -1 c42 -1 67 -6 67 -13 0 -8 -21 -9 -67 -5 -38 4
-90 8 -118 10 -95 8 -220 20 -227 22 -5 1 -12 2 -18 3 -19 2 -10 21 10 21 11
0 20 5 20 10 0 6 8 10 18 9 10 0 12 -3 5 -6z m404 -29 c-3 -3 -12 -4 -19 -1
-8 3 -5 6 6 6 11 1 17 -2 13 -5z m98 -13 c10 -17 -9 -19 -50 -6 l-40 13 42 1
c23 1 44 -3 48 -8z m62 -7 c-3 -3 -12 -4 -19 -1 -8 3 -5 6 6 6 11 1 17 -2 13
-5z m228 -18 c92 -8 212 -19 225 -22 8 -1 32 -3 53 -3 20 -1 37 -4 37 -8 0 -5
-36 -7 -81 -5 -50 2 -79 0 -75 -6 3 -5 52 -10 108 -11 67 0 98 3 88 9 -26 16
-1 23 42 11 24 -7 101 -15 173 -19 108 -6 130 -10 133 -23 4 -22 -45 -31 -137
-24 -45 3 -71 2 -71 -5 0 -5 -11 -10 -25 -10 -17 0 -23 4 -19 14 5 14 -21 16
-288 29 -37 2 -71 6 -74 10 -4 4 -27 7 -51 7 -23 0 -43 5 -43 10 0 6 29 10 67
10 87 0 74 12 -17 16 -66 2 -70 1 -65 -17 5 -14 2 -19 -13 -19 -10 0 -22 3
-26 8 -9 8 -14 8 -100 11 -85 2 -63 12 28 13 42 0 76 5 76 9 0 8 -83 14 -135
10 -16 -2 -17 0 -5 8 13 9 56 8 195 -3z m-257 -17 c-11 -6 -34 -6 -65 0 l-48
9 65 1 c48 0 60 -2 48 -10z m-105 -26 c-7 -2 -21 -2 -30 0 -10 3 -4 5 12 5 17
0 24 -2 18 -5z m64 1 c-3 -3 -12 -4 -19 -1 -8 3 -5 6 6 6 11 1 17 -2 13 -5z
m60 -20 c-3 -3 -12 -4 -19 -1 -8 3 -5 6 6 6 11 1 17 -2 13 -5z m1029 -26 c-33
-6 -52 -6 -60 2 -7 7 8 10 50 9 l59 -1 -49 -10z m-623 -5 c-13 -2 -33 -2 -45
0 -13 2 -3 4 22 4 25 0 35 -2 23 -4z m782 -3 c-3 -5 -21 -10 -38 -10 -24 0
-28 3 -17 10 20 13 63 13 55 0z m-525 -10 c11 -7 7 -10 -18 -10 -20 0 -31 4
-27 10 8 13 26 13 45 0z m288 -37 c-10 -2 -26 -2 -35 0 -10 3 -2 5 17 5 19 0
27 -2 18 -5z m370 -29 c32 -9 28 -28 -5 -19 -32 7 -55 25 -32 25 7 0 24 -3 37
-6z m515 -71 c-7 -2 -19 -2 -25 0 -7 3 -2 5 12 5 14 0 19 -2 13 -5z m112 -13
c4 -6 -10 -10 -34 -10 -23 0 -41 5 -41 10 0 6 15 10 34 10 19 0 38 -4 41 -10z"/>
<path d="M4161 816 c8 -8 98 -10 105 -3 4 4 -19 7 -51 7 -32 0 -56 -2 -54 -4z"/>
<path d="M4295 800 c-6 -10 100 -17 123 -8 20 8 17 8 -61 13 -31 2 -59 -1 -62
-5z"/>
<path d="M5940 1115 c7 -9 15 -13 17 -11 7 7 -7 26 -19 26 -6 0 -6 -6 2 -15z"/>
<path d="M5781 1096 c-19 -7 -30 -15 -25 -19 13 -8 83 3 89 14 3 4 22 5 43 3
28 -4 33 -3 22 5 -20 14 -86 13 -129 -3z"/>
<path d="M2930 1081 c0 -10 169 -30 305 -36 130 -6 74 8 -122 29 -164 18 -183
19 -183 7z"/>
<path d="M6976 1015 c4 -8 10 -12 15 -9 14 8 10 24 -6 24 -9 0 -12 -6 -9 -15z"/>
<path d="M8097 1020 c-26 -5 -67 -20 -91 -34 -46 -27 -76 -56 -57 -56 6 0 11
6 11 13 1 17 24 -24 25 -45 2 -20 -10 -24 -21 -7 -3 6 -15 8 -26 6 -15 -4 -18
-2 -14 10 4 9 -3 6 -18 -8 -13 -13 -21 -29 -18 -38 3 -8 1 -12 -5 -8 -14 9
-41 -53 -49 -112 -5 -40 -4 -51 7 -51 16 0 44 39 34 48 -3 4 -10 0 -15 -8 -7
-11 -10 -2 -10 28 0 26 4 41 10 37 6 -4 10 5 10 20 0 16 4 24 11 20 6 -4 8
-14 5 -22 -3 -8 -1 -11 4 -8 6 4 9 12 8 18 -1 7 1 24 5 38 5 20 13 26 34 25
24 -1 28 -5 26 -27 -1 -26 -1 -26 27 -13 15 8 33 21 40 29 10 13 8 15 -15 15
-19 0 -26 4 -22 14 3 7 -1 23 -9 35 -16 22 -6 29 13 10 8 -8 20 -8 45 1 29 11
39 10 67 -5 25 -12 36 -14 45 -5 8 8 7 13 -2 19 -8 5 -1 8 20 9 18 0 39 -4 46
-10 10 -9 16 -8 22 1 5 9 10 10 14 3 9 -15 -10 -24 -37 -17 -21 6 -21 5 -3 -9
13 -11 24 -12 37 -6 10 6 34 10 53 10 20 0 36 4 36 9 0 15 -18 23 -25 11 -3
-5 -13 -10 -21 -10 -8 0 -12 4 -9 10 3 5 -13 13 -37 16 -24 4 -36 10 -28 12 9
3 -1 10 -25 18 l-40 14 53 -6 c69 -6 88 -14 70 -26 -8 -6 -2 -7 20 -3 20 4 32
3 32 -4 0 -6 7 -11 16 -11 8 0 13 -4 10 -9 -6 -8 15 -21 35 -21 26 0 2 21 -58
51 -74 36 -146 45 -236 29z m68 -25 l40 -14 -52 -1 c-31 0 -53 5 -55 12 -3 7
-12 9 -23 4 -17 -6 -17 -9 -5 -17 11 -7 6 -8 -15 -3 -23 4 -26 3 -15 -5 12 -8
8 -10 -17 -8 -37 2 -35 5 15 28 46 22 76 23 127 4z"/>
<path d="M3795 990 c22 -5 94 -14 160 -19 66 -6 139 -14 163 -17 28 -5 42 -3
42 5 0 6 -15 11 -32 11 -18 0 -51 5 -73 9 -22 5 -98 12 -170 15 -88 3 -117 2
-90 -4z"/>
<path d="M8186 918 c5 -7 2 -9 -8 -6 -8 4 -15 1 -15 -7 0 -10 6 -11 23 -3 22
10 24 28 3 28 -6 0 -7 -5 -3 -12z"/>
<path d="M8070 909 c0 -5 6 -9 13 -9 7 0 13 -8 13 -19 0 -10 -7 -17 -16 -16
-8 1 -9 0 -2 -2 6 -3 12 -8 12 -13 0 -14 -27 -19 -39 -7 -6 6 -14 7 -18 3 -4
-4 -1 -11 7 -16 11 -7 11 -12 2 -23 -7 -7 -8 -18 -4 -23 4 -4 0 -3 -10 4 -20
16 -26 7 -23 -35 1 -23 -3 -33 -13 -33 -11 0 -12 -3 -3 -13 6 -8 8 -17 4 -20
-12 -12 -22 -7 -28 13 -7 24 -35 27 -35 4 0 -8 -4 -13 -9 -10 -5 4 -7 -3 -4
-14 5 -20 23 -28 23 -10 0 6 5 10 11 10 6 0 9 -6 7 -12 -3 -7 0 -57 7 -110 6
-54 8 -98 3 -98 -4 0 -9 15 -9 33 -2 30 -2 30 -6 5 -5 -30 -10 -33 -32 -19 -8
5 -11 16 -8 26 4 9 11 13 17 10 6 -4 7 2 1 17 -5 13 -10 28 -11 33 -1 6 -4 12
-7 15 -3 3 -3 -8 1 -25 4 -19 3 -25 -3 -16 -7 11 -11 10 -20 -5 -6 -11 -11
-14 -11 -9 -4 31 -11 60 -19 69 -5 6 -14 27 -19 46 -8 26 -10 29 -11 12 -1
-12 6 -39 15 -60 10 -20 18 -41 19 -47 0 -5 5 -18 9 -28 7 -14 11 -15 24 -5
13 11 14 10 4 -8 -11 -22 -2 -34 76 -98 27 -23 38 -16 22 14 -20 37 -28 153
-15 200 5 19 4 22 -4 10 -9 -12 -11 -11 -11 8 0 12 6 22 14 22 14 0 32 52 27
79 -1 7 2 11 6 8 5 -3 18 11 29 31 10 20 36 52 57 70 28 26 35 38 27 47 -13
15 -60 26 -60 14z m-76 -497 c5 -15 5 -15 -6 -1 -7 8 -21 18 -30 22 -10 3 -18
11 -18 17 0 15 47 -18 54 -38z"/>
<path d="M4845 890 c84 -15 227 -30 275 -29 71 1 -105 27 -225 33 -77 4 -88 3
-50 -4z"/>
<path d="M6865 869 c-157 -35 -588 -55 -598 -26 -4 14 -50 17 -59 3 -5 -8 -8
-7 -8 2 0 7 -14 12 -35 12 -19 0 -35 -5 -35 -11 0 -8 -5 -7 -16 2 -13 10 -17
10 -25 -2 -6 -10 -9 -10 -9 -1 0 7 -14 12 -35 12 -19 0 -35 -5 -35 -11 0 -7
10 -9 25 -7 14 3 25 1 25 -5 0 -15 -200 -1 -297 21 -46 10 -83 15 -83 11 0
-20 166 -61 303 -75 37 -3 67 -10 67 -15 0 -5 -4 -9 -10 -9 -5 0 -10 -4 -10
-10 0 -13 317 -13 475 0 127 11 287 40 369 67 47 15 116 50 116 59 0 8 -45 2
-125 -17z"/>
<path d="M5228 843 c7 -3 16 -2 19 1 4 3 -2 6 -13 5 -11 0 -14 -3 -6 -6z"/>
<path d="M8603 778 l-41 -41 -30 22 c-99 70 -236 68 -321 -5 -106 -91 -113
-294 -15 -386 64 -60 202 -77 284 -35 l45 22 3 68 3 67 -91 0 -90 0 0 66 0 67
53 -7 c28 -3 98 -6 155 -6 l102 0 0 -153 0 -153 -32 -30 c-50 -47 -101 -74
-170 -89 l-63 -15 81 3 c64 3 94 9 137 31 106 51 177 147 195 260 15 94 -16
226 -53 226 -10 0 -15 -11 -15 -35 0 -31 -3 -35 -25 -35 -21 0 -25 5 -26 33 0
17 -2 39 -4 48 -1 9 1 23 6 30 6 10 9 4 9 -18 0 -23 5 -33 15 -33 8 0 15 5 15
11 0 6 14 9 33 7 17 -2 33 0 35 5 1 4 -1 7 -4 6 -4 0 -11 5 -15 13 -7 10 -9
10 -9 1 0 -7 -9 -13 -20 -13 -13 0 -18 5 -14 15 4 9 -3 16 -20 21 -14 3 -26
11 -26 18 0 16 37 38 44 25 2 -5 3 -4 2 2 -1 7 -10 13 -19 15 -9 1 -15 -2 -11
-7 8 -13 -3 -11 -35 5 -27 14 -29 13 -68 -26z m67 -68 c0 -15 -7 -20 -25 -20
-18 0 -25 5 -25 20 0 15 7 20 25 20 18 0 25 -5 25 -20z m56 5 c-4 -24 -16 -30
-16 -7 0 12 4 22 9 22 5 0 8 -7 7 -15z"/>
<path d="M7935 799 c-4 -6 -5 -12 -2 -15 2 -3 7 2 10 11 7 17 1 20 -8 4z"/>
<path d="M8700 766 c0 -9 30 -14 35 -6 4 6 -3 10 -14 10 -12 0 -21 -2 -21 -4z"/>
<path d="M9060 759 c-64 -26 -103 -89 -104 -169 -1 -65 28 -121 77 -147 49
-26 143 -23 190 5 l37 24 0 74 0 74 -70 0 c-68 0 -70 -1 -70 -25 0 -23 4 -25
45 -25 45 0 45 0 45 -35 0 -41 -20 -55 -79 -55 -55 0 -87 17 -106 55 -31 68
-6 141 61 172 33 16 38 16 85 -1 39 -13 53 -15 65 -5 23 19 17 29 -28 49 -46
21 -108 25 -148 9z"/>
<path d="M4780 750 c8 -5 33 -10 55 -10 29 0 36 3 25 10 -8 5 -33 10 -55 10
-29 0 -36 -3 -25 -10z"/>
<path d="M10175 750 c-4 -6 -5 -34 -4 -63 3 -59 -6 -83 -24 -69 -37 28 -111
16 -123 -20 -3 -11 -3 -22 0 -25 3 -4 6 1 6 10 0 24 49 46 83 36 61 -17 78
-91 30 -130 -19 -15 -22 -20 -9 -15 20 7 20 7 0 -15 -14 -16 -15 -21 -4 -17 8
2 19 14 25 26 11 25 41 41 31 17 -3 -9 -2 -13 4 -10 13 8 13 55 0 55 -5 0 -10
13 -10 29 0 16 -4 31 -8 33 -4 2 0 11 9 20 17 16 18 14 23 -35 3 -29 7 -65 9
-82 2 -16 4 36 5 118 1 138 0 147 -18 147 -10 0 -22 -5 -25 -10z m28 -52 c-7
-53 -13 -62 -13 -20 0 16 -3 37 -6 46 -4 10 -1 16 9 16 12 0 14 -9 10 -42z"/>
<path d="M5138 743 c12 -2 30 -2 40 0 9 3 -1 5 -23 4 -22 0 -30 -2 -17 -4z"/>
<path d="M10265 740 c-10 -16 4 -30 28 -26 32 5 35 36 3 36 -14 0 -28 -4 -31
-10z m45 -8 c0 -4 -9 -8 -20 -9 -11 -1 -18 2 -15 8 7 11 35 12 35 1z"/>
<path d="M5215 731 c11 -5 37 -10 59 -10 33 -1 37 -3 26 -16 -11 -13 -7 -15
29 -15 23 0 50 -6 61 -12 17 -11 22 -10 30 2 15 24 0 33 -46 26 -31 -4 -45 -2
-51 8 -5 8 -33 17 -68 20 -41 4 -54 3 -40 -3z"/>
<path d="M5258 693 c7 -3 16 -2 19 1 4 3 -2 6 -13 5 -11 0 -14 -3 -6 -6z"/>
<path d="M5453 694 c11 -3 16 -12 13 -20 -4 -11 6 -14 44 -14 27 0 51 -4 54
-9 9 -14 88 -21 109 -9 13 7 17 7 13 0 -4 -7 12 -13 41 -17 27 -3 58 -8 71
-11 12 -2 22 0 22 6 0 5 0 13 0 18 0 4 -21 10 -47 13 -26 4 -65 10 -85 14 -32
6 -38 5 -38 -9 0 -18 -8 -20 -30 -6 -11 7 -11 10 -2 10 7 0 11 4 8 9 -3 4 -29
11 -58 14 -29 4 -71 9 -93 11 -22 3 -32 3 -22 0z"/>
<path d="M5243 663 c9 -2 23 -2 30 0 6 3 -1 5 -18 5 -16 0 -22 -2 -12 -5z"/>
<path d="M9783 658 c-31 -10 -45 -28 -23 -28 6 0 3 -11 -7 -24 -12 -16 -20
-20 -25 -13 -4 7 0 15 8 20 8 5 12 13 8 18 -9 15 -33 -22 -26 -40 3 -9 1 -12
-6 -7 -6 4 -10 -1 -9 -12 2 -25 39 -23 43 2 4 28 29 49 59 49 19 0 23 2 14 8
-11 7 -11 9 2 9 9 0 28 -11 42 -24 16 -15 28 -20 30 -13 2 7 8 9 12 5 11 -11
-24 -48 -40 -42 -7 3 -14 -3 -17 -13 -4 -15 2 -18 39 -19 23 -1 43 2 43 7 0 5
-7 6 -15 3 -18 -7 -20 14 -4 36 9 13 10 12 5 -2 -3 -10 -1 -18 4 -18 21 0 9
43 -20 71 -23 24 -35 28 -57 23 -21 -4 -25 -3 -13 5 13 10 13 11 0 10 -8 -1
-30 -6 -47 -11z m17 -18 c0 -5 -7 -10 -16 -10 -8 0 -12 5 -9 10 3 6 10 10 16
10 5 0 9 -4 9 -10z m80 -5 c7 -9 10 -18 7 -22 -4 -3 -9 2 -13 11 -3 9 -10 13
-15 10 -5 -3 -9 0 -9 5 0 16 16 13 30 -4z m-145 -65 c3 -5 1 -10 -4 -10 -6 0
-11 5 -11 10 0 6 2 10 4 10 3 0 8 -4 11 -10z"/>
<path d="M9306 652 c-9 -15 -4 -162 5 -162 5 0 9 15 9 34 0 18 2 49 5 67 4 27
3 30 -5 14 -8 -17 -9 -16 -7 10 1 18 7 29 15 28 6 -2 12 2 12 7 0 12 -27 13
-34 2z"/>
<path d="M9380 650 c-27 -17 -19 -36 14 -32 49 6 65 -19 67 -111 3 -67 5 -77
21 -77 15 0 18 9 18 65 0 36 0 68 1 73 1 17 44 52 64 52 35 0 45 -20 45 -87 0
-44 4 -63 13 -63 9 0 8 -3 -2 -9 -17 -11 -6 -31 17 -31 11 0 18 8 19 20 1 11
-2 18 -8 15 -5 -4 -9 -1 -9 4 0 6 5 11 11 11 8 0 10 22 6 67 -4 57 -9 70 -31
90 -26 22 -76 32 -76 14 0 -4 10 -6 23 -4 26 4 36 -3 61 -41 11 -18 14 -31 8
-35 -6 -3 -12 -22 -15 -41 -4 -27 -5 -24 -4 12 1 56 -22 88 -65 88 -15 0 -28
5 -28 12 0 6 -8 4 -19 -6 -11 -10 -17 -25 -14 -37 3 -10 1 -19 -3 -19 -5 0 -7
-25 -6 -55 2 -30 0 -55 -5 -55 -5 0 -7 16 -5 35 2 19 -1 49 -7 67 -8 22 -8 34
-1 36 6 2 6 10 -1 24 -6 11 -17 17 -25 14 -9 -3 -12 -1 -9 4 3 6 1 10 -4 10
-6 0 -11 -8 -11 -17 -1 -17 -2 -17 -13 -1 -9 11 -18 14 -27 8z m80 -30 c0 -5
-4 -10 -10 -10 -5 0 -10 5 -10 10 0 6 5 10 10 10 6 0 10 -4 10 -10z"/>
<path d="M10040 650 c-8 -5 -11 -12 -7 -17 5 -4 11 -3 15 3 4 6 14 14 22 17
13 5 13 5 0 6 -8 0 -22 -3 -30 -9z"/>
<path d="M10105 650 c27 -12 43 -12 25 0 -8 5 -22 9 -30 9 -10 0 -8 -3 5 -9z"/>
<path d="M10308 638 c-4 -30 -26 -34 -31 -6 -2 13 -4 -24 -4 -82 0 -64 2 -89
6 -63 6 44 24 48 34 8 2 -11 5 22 6 73 1 87 -4 118 -11 70z m-8 -62 c0 -8 -4
-18 -10 -21 -5 -3 -10 3 -10 14 0 12 5 21 10 21 6 0 10 -6 10 -14z"/>
<path d="M5840 630 c0 -5 10 -10 23 -10 18 0 19 2 7 10 -19 13 -30 13 -30 0z"/>
<path d="M7866 632 c-3 -6 -2 -13 4 -17 5 -3 10 -17 10 -30 0 -13 5 -27 10
-30 6 -3 10 4 10 17 -1 30 -25 74 -34 60z"/>
<path d="M7901 635 c1 -19 18 -51 18 -35 0 8 -4 22 -9 30 -5 8 -9 11 -9 5z"/>
<path d="M10000 625 c-9 -11 -10 -19 -3 -26 8 -8 13 -5 18 11 9 28 2 35 -15
15z"/>
<path d="M5574 605 c11 -8 31 -15 45 -15 34 0 15 16 -29 24 -32 5 -34 5 -16
-9z"/>
<path d="M9334 565 c-3 -20 -4 -50 0 -67 5 -24 1 -35 -16 -50 l-23 -20 25 4
c24 3 25 7 30 86 5 84 -4 110 -16 47z"/>
<path d="M9976 568 c-9 -30 19 -98 43 -106 8 -3 3 9 -9 26 -18 24 -20 34 -11
48 9 17 10 17 11 -6 0 -14 13 -40 29 -58 l30 -32 -27 6 c-15 4 -24 4 -21 0 4
-4 26 -9 50 -11 24 -2 36 -1 27 2 -10 2 -18 8 -18 13 0 5 7 7 15 4 8 -4 15 -1
15 6 0 7 -8 10 -20 7 -26 -7 -70 35 -70 68 0 15 -6 25 -14 25 -8 0 -16 8 -19
18 -3 13 -6 10 -11 -10z"/>
<path d="M9748 550 c-9 -10 -14 -27 -11 -38 2 -11 -1 -23 -7 -27 -9 -5 -10 -1
-5 15 5 15 4 20 -4 16 -7 -5 -9 -1 -5 8 4 9 1 16 -6 16 -19 0 -3 -51 25 -79
26 -26 86 -34 93 -12 3 8 8 7 16 -4 9 -13 17 -14 39 -6 24 9 26 13 15 30 -10
16 -15 18 -32 8 -12 -6 -26 -10 -32 -9 -6 1 -17 -4 -23 -12 -10 -11 -19 -12
-42 -4 -27 9 -29 13 -23 42 8 40 6 38 51 38 21 0 32 3 26 5 -7 3 -13 9 -13 15
0 6 7 8 15 4 8 -3 15 -1 15 4 0 6 -11 10 -25 10 -14 0 -25 -4 -25 -10 0 -5 -5
-10 -11 -10 -5 0 -7 5 -4 10 10 17 -9 10 -27 -10z m131 -101 c-22 -14 -33 -10
-19 6 7 8 17 12 22 9 6 -4 5 -10 -3 -15z"/>
<path d="M9301 464 c0 -11 3 -14 6 -6 3 7 2 16 -1 19 -3 4 -6 -2 -5 -13z"/>
<path d="M9778 463 c7 -3 16 -2 19 1 4 3 -2 6 -13 5 -11 0 -14 -3 -6 -6z"/>
<path d="M10290 450 c-9 -17 -8 -20 12 -20 19 0 20 2 8 10 -10 6 -11 10 -2 10
6 0 12 5 12 10 0 17 -19 11 -30 -10z"/>
<path d="M10200 451 c0 -5 -8 -12 -17 -14 -11 -3 -7 -5 10 -6 18 -1 27 4 27
14 0 8 -4 15 -10 15 -5 0 -10 -4 -10 -9z"/>
<path d="M8977 354 c-16 -16 -5 -36 28 -50 20 -8 33 -19 30 -24 -8 -14 -39
-12 -53 2 -9 9 -12 9 -12 0 0 -20 38 -34 60 -22 30 16 24 39 -15 56 -20 8 -33
19 -30 24 8 13 42 13 48 0 3 -6 4 -5 3 2 -3 14 -48 23 -59 12z"/>
<path d="M9280 346 c0 -8 -10 -16 -22 -18 -27 -4 -37 -48 -15 -67 28 -23 47
-2 47 50 0 27 -2 49 -5 49 -3 0 -5 -6 -5 -14z m-2 -54 c3 -17 -2 -22 -17 -22
-14 0 -21 6 -21 18 0 38 33 41 38 4z"/>
<path d="M9923 310 c0 -30 2 -43 4 -27 2 15 2 39 0 55 -2 15 -4 2 -4 -28z"/>
<path d="M9070 322 c0 -6 9 -8 20 -5 11 3 20 0 20 -6 0 -6 -6 -11 -13 -11 -7
0 -18 -5 -25 -12 -17 -17 3 -36 34 -30 21 4 25 9 22 36 -2 25 -8 32 -30 34
-16 2 -28 -1 -28 -6z m45 -42 c-3 -5 -13 -10 -21 -10 -8 0 -14 5 -14 10 0 6 9
10 21 10 11 0 17 -4 14 -10z"/>
<path d="M9152 298 c-2 -36 0 -38 28 -38 28 0 30 2 29 38 -1 36 -2 36 -8 7 -9
-43 -39 -45 -44 -3 l-4 33 -1 -37z"/>
<path d="M9317 323 c-25 -24 8 -77 41 -66 20 7 14 22 -7 16 -10 -3 -22 0 -25
6 -5 7 4 11 23 11 33 0 39 8 19 28 -13 13 -41 16 -51 5z m43 -13 c0 -5 -9 -10
-21 -10 -11 0 -17 5 -14 10 3 6 13 10 21 10 8 0 14 -4 14 -10z"/>
<path d="M9435 320 c-4 -7 2 -9 19 -4 15 3 26 2 26 -4 0 -5 -11 -13 -25 -16
-27 -7 -34 -31 -11 -39 8 -3 24 -3 36 0 17 4 20 12 18 37 -2 25 -8 32 -30 34
-14 2 -29 -2 -33 -8z m45 -40 c0 -5 -9 -10 -21 -10 -11 0 -17 5 -14 10 3 6 13
10 21 10 8 0 14 -4 14 -10z"/>
<path d="M9556 315 c-4 -11 3 -19 19 -25 34 -13 32 -24 -2 -15 -26 6 -27 5
-12 -10 18 -18 49 -11 49 12 0 8 -9 17 -20 20 -11 3 -20 10 -20 15 0 6 9 8 20
5 11 -3 18 -1 14 4 -9 15 -41 10 -48 -6z"/>
<path d="M9637 323 c-25 -24 8 -77 41 -66 22 8 12 20 -13 15 -15 -2 -25 0 -25
7 0 6 14 11 30 11 28 0 30 2 20 20 -10 19 -40 27 -53 13z m43 -13 c0 -5 -9
-10 -21 -10 -11 0 -17 5 -14 10 3 6 13 10 21 10 8 0 14 -4 14 -10z"/>
<path d="M9710 302 c0 -34 15 -51 41 -45 15 4 19 13 17 42 l-1 36 -4 -32 c-3
-19 -10 -33 -18 -33 -16 0 -29 35 -20 50 3 5 1 10 -4 10 -6 0 -11 -13 -11 -28z"/>
<path d="M9835 320 c-4 -7 2 -9 19 -4 16 4 26 2 26 -4 0 -6 -10 -12 -22 -14
-26 -3 -36 -33 -14 -41 8 -3 24 -3 36 0 17 4 20 12 18 37 -2 25 -8 32 -30 34
-14 2 -29 -2 -33 -8z m45 -40 c0 -5 -9 -10 -21 -10 -11 0 -17 5 -14 10 3 6 13
10 21 10 8 0 14 -4 14 -10z"/>
<path d="M9950 315 c-27 -33 19 -80 49 -50 15 15 14 16 -12 9 -26 -6 -28 -4
-25 17 2 18 9 23 26 22 13 -2 21 1 17 7 -9 15 -41 12 -55 -5z"/>
<path d="M10025 320 c-4 -7 2 -9 19 -4 16 4 26 2 26 -5 0 -6 -9 -11 -20 -11
-24 0 -39 -29 -20 -40 26 -16 50 1 50 36 0 29 -3 34 -24 34 -14 0 -28 -5 -31
-10z m45 -40 c0 -5 -9 -10 -21 -10 -11 0 -17 5 -14 10 3 6 13 10 21 10 8 0 14
-4 14 -10z"/>
<path d="M10100 295 c0 -19 5 -35 10 -35 6 0 10 14 10 30 0 20 5 30 15 30 10
0 15 -10 15 -30 0 -16 4 -30 9 -30 7 0 8 35 3 63 -1 4 -15 7 -32 7 -28 0 -30
-3 -30 -35z"/>
<path d="M10192 318 c-19 -19 -14 -46 9 -59 17 -9 25 -8 38 6 15 15 14 16 -11
10 -25 -7 -28 -5 -28 20 0 22 4 26 20 22 11 -3 20 -1 20 4 0 13 -34 11 -48 -3z"/>
<path d="M10267 324 c-4 -4 -7 -20 -7 -35 0 -28 19 -42 45 -33 24 10 17 22
-10 16 -15 -2 -25 0 -25 7 0 6 12 11 26 11 19 0 25 5 22 18 -3 17 -38 29 -51
16z m43 -14 c0 -5 -9 -10 -21 -10 -11 0 -17 5 -14 10 3 6 13 10 21 10 8 0 14
-4 14 -10z"/>
</g>
</svg>
